
<svg width="187px" height="43px" viewBox="0 0 187 43" version="1.1" xmlns="http://www.w3.org/2000/svg" xmlns:xlink="http://www.w3.org/1999/xlink">
    <defs>
        <rect id="path-1" x="3" y="3" width="185" height="40" rx="2"></rect>
        <filter x="-1.1%" y="-5.0%" width="102.2%" height="112.5%" filterUnits="objectBoundingBox" id="filter-2">
            <feOffset dx="0" dy="1" in="SourceAlpha" result="shadowOffsetOuter1"></feOffset>
            <feGaussianBlur stdDeviation="0.5" in="shadowOffsetOuter1" result="shadowBlurOuter1"></feGaussianBlur>
            <feColorMatrix values="0 0 0 0 0   0 0 0 0 0   0 0 0 0 0  0 0 0 0.24 0" type="matrix" in="shadowBlurOuter1" result="shadowMatrixOuter1"></feColorMatrix>
            <feOffset dx="0" dy="0" in="SourceAlpha" result="shadowOffsetOuter2"></feOffset>
            <feGaussianBlur stdDeviation="0.5" in="shadowOffsetOuter2" result="shadowBlurOuter2"></feGaussianBlur>
            <feColorMatrix values="0 0 0 0 0   0 0 0 0 0   0 0 0 0 0  0 0 0 0.12 0" type="matrix" in="shadowBlurOuter2" result="shadowMatrixOuter2"></feColorMatrix>
            <feMerge>
                <feMergeNode in="shadowMatrixOuter1"></feMergeNode>
                <feMergeNode in="shadowMatrixOuter2"></feMergeNode>
            </feMerge>
        </filter>
    </defs>
    <g id="Page-1" stroke="none" stroke-width="1" fill="none" fill-rule="evenodd">
        <g id="Google-login" transform="translate(-2.000000, -2.000000)">
            <g id="button-bg" opacity="0.05">
                <use fill="black" fill-opacity="1" filter="url(#filter-2)" xlink:href="#path-1"></use>
                <use fill="#FFFFFF" fill-rule="evenodd" xlink:href="#path-1"></use>
            </g>
            <path d="M31.64,23.2045455 C31.64,22.5663636 31.5827273,21.9527273 31.4763636,21.3636364 L23,21.3636364 L23,24.845 L27.8436364,24.845 C27.635,25.97 27.0009091,26.9231818 26.0477273,27.5613636 L26.0477273,29.8195455 L28.9563636,29.8195455 C30.6581818,28.2527273 31.64,25.9454545 31.64,23.2045455 L31.64,23.2045455 Z" id="Shape" fill="#4285F4"></path>
            <path d="M23,32 C25.43,32 27.4672727,31.1940909 28.9563636,29.8195455 L26.0477273,27.5613636 C25.2418182,28.1013636 24.2109091,28.4204545 23,28.4204545 C20.6559091,28.4204545 18.6718182,26.8372727 17.9640909,24.71 L14.9572727,24.71 L14.9572727,27.0418182 C16.4381818,29.9831818 19.4818182,32 23,32 L23,32 Z" id="Shape" fill="#34A853"></path>
            <path d="M17.9640909,24.71 C17.7840909,24.17 17.6818182,23.5931818 17.6818182,23 C17.6818182,22.4068182 17.7840909,21.83 17.9640909,21.29 L17.9640909,18.9581818 L14.9572727,18.9581818 C14.3477273,20.1731818 14,21.5477273 14,23 C14,24.4522727 14.3477273,25.8268182 14.9572727,27.0418182 L17.9640909,24.71 L17.9640909,24.71 Z" id="Shape" fill="#FBBC05"></path>
            <path d="M23,17.5795455 C24.3213636,17.5795455 25.5077273,18.0336364 26.4404545,18.9254545 L29.0218182,16.3440909 C27.4631818,14.8918182 25.4259091,14 23,14 C19.4818182,14 16.4381818,16.0168182 14.9572727,18.9581818 L17.9640909,21.29 C18.6718182,19.1627273 20.6559091,17.5795455 23,17.5795455 L23,17.5795455 Z" id="Shape" fill="#EA4335"></path>
            <polygon id="Shape" points="14 14 32 14 32 32 14 32"></polygon>
            <text id="Sign-in-with-Google" font-family="Helvetica" font-size="14" font-weight="normal" letter-spacing="0.21875" fill="#000000" fill-opacity="0.54">
                <tspan x="46.1083984" y="29">Sign in with Google</tspan>
            </text>
        </g>
    </g>
</svg>