
<svg width="187px" height="43px" viewBox="0 0 187 43" version="1.1" xmlns="http://www.w3.org/2000/svg" xmlns:xlink="http://www.w3.org/1999/xlink">
    <defs>
        <rect id="path-1" x="3" y="3" width="185" height="40" rx="2"></rect>
        <filter x="-1.1%" y="-5.0%" width="102.2%" height="112.5%" filterUnits="objectBoundingBox" id="filter-2">
            <feOffset dx="0" dy="1" in="SourceAlpha" result="shadowOffsetOuter1"></feOffset>
            <feGaussianBlur stdDeviation="0.5" in="shadowOffsetOuter1" result="shadowBlurOuter1"></feGaussianBlur>
            <feColorMatrix values="0 0 0 0 0   0 0 0 0 0   0 0 0 0 0  0 0 0 0.24 0" type="matrix" in="shadowBlurOuter1" result="shadowMatrixOuter1"></feColorMatrix>
            <feOffset dx="0" dy="0" in="SourceAlpha" result="shadowOffsetOuter2"></feOffset>
            <feGaussianBlur stdDeviation="0.5" in="shadowOffsetOuter2" result="shadowBlurOuter2"></feGaussianBlur>
            <feColorMatrix values="0 0 0 0 0   0 0 0 0 0   0 0 0 0 0  0 0 0 0.12 0" type="matrix" in="shadowBlurOuter2" result="shadowMatrixOuter2"></feColorMatrix>
            <feMerge>
                <feMergeNode in="shadowMatrixOuter1"></feMergeNode>
                <feMergeNode in="shadowMatrixOuter2"></feMergeNode>
            </feMerge>
        </filter>
    </defs>
    <g id="Page-1" stroke="none" stroke-width="1" fill="none" fill-rule="evenodd">
        <g id="Join-button" transform="translate(-2.000000, -2.000000)">
            <g id="button-bg" opacity="0.05">
                <use fill="black" fill-opacity="1" filter="url(#filter-2)" xlink:href="#path-1"></use>
                <use fill="#FFFFFF" fill-rule="evenodd" xlink:href="#path-1"></use>
            </g>
            <text id="Join" font-family="Helvetica" font-size="14" font-weight="normal" letter-spacing="0.21875" fill="#000000" fill-opacity="0.54">
                <tspan x="82.2211914" y="29">Join</tspan>
            </text>
            <g id="ic_person_add_black_24px" transform="translate(14.000000, 14.000000)">
                <g id="Group">
                    <polygon id="Shape" points="0 0 18 0 18 18 0 18"></polygon>
                    <path d="M11.25,9 C12.9075,9 14.25,7.6575 14.25,6 C14.25,4.3425 12.9075,3 11.25,3 C9.5925,3 8.25,4.3425 8.25,6 C8.25,7.6575 9.5925,9 11.25,9 Z M4.5,7.5 L4.5,5.25 L3,5.25 L3,7.5 L0.75,7.5 L0.75,9 L3,9 L3,11.25 L4.5,11.25 L4.5,9 L6.75,9 L6.75,7.5 L4.5,7.5 Z M11.25,10.5 C9.2475,10.5 5.25,11.505 5.25,13.5 L5.25,15 L17.25,15 L17.25,13.5 C17.25,11.505 13.2525,10.5 11.25,10.5 Z" id="Shape" fill="#000000"></path>
                </g>
            </g>
        </g>
    </g>
</svg>